<?xml version="1.0" encoding="utf-8"?>
<!-- Generator: Adobe Illustrator 22.1.0, SVG Export Plug-In . SVG Version: 6.00 Build 0)  -->
<svg version="1.1" id="Layer_1" xmlns="http://www.w3.org/2000/svg" xmlns:xlink="http://www.w3.org/1999/xlink" x="0px" y="0px"
	 viewBox="0 0 64 64" style="enable-background:new 0 0 64 64;" xml:space="preserve">
<style type="text/css">
	.st0{fill:url(#Data_Grid_Form_1_);}
</style>
<linearGradient id="Data_Grid_Form_1_" gradientUnits="userSpaceOnUse" x1="32" y1="0" x2="32" y2="64">
	<stop  offset="0" style="stop-color:#FFAB09"/>
	<stop  offset="0.7" style="stop-color:#FF6358"/>
	<stop  offset="1" style="stop-color:#DD3169"/>
</linearGradient>
<path id="Data_Grid_Form" class="st0" d="M35,19H23v-2h14L35,19z M37,6H23v2h12L37,6z M58,15H23V9h35V15z M56,11H25v2h31V11z M42,58
	h16v-6H42V58z M58,26H23v-6h35V26z M56,22H25v2h31V22z M64,0v64H0V0H64z M62,2H2v60h60V2z M39,52H23v6h16V52z M37,28H23v2h12L37,28z
	 M19,58H6V6h13V58z M17,51H8v5h9V51z M17,44H8v5h9V44z M17,37H8v5h9V37z M17,30H8v5h9V30z M17,23H8v5h9V23z M17,16H8v5h9V16z M58,37
	H23v-6h35V37z M56,33H25v2h31V33z M58,48H23v-6h35V48z M56,44H25v2h31V44z M37,39H23v2h12L37,39z"/>
</svg>
