<?xml version="1.0" encoding="utf-8"?>
<!-- Generator: Adobe Illustrator 22.1.0, SVG Export Plug-In . SVG Version: 6.00 Build 0)  -->
<svg version="1.1" id="Layer_1" xmlns="http://www.w3.org/2000/svg" xmlns:xlink="http://www.w3.org/1999/xlink" x="0px" y="0px"
	 viewBox="0 0 64 64" style="enable-background:new 0 0 64 64;" xml:space="preserve">
<style type="text/css">
	.st0{fill:url(#Hierarchical_Data_Grid_1_);}
</style>
<linearGradient id="Hierarchical_Data_Grid_1_" gradientUnits="userSpaceOnUse" x1="32" y1="0" x2="32" y2="64">
	<stop  offset="0" style="stop-color:#FFAB09"/>
	<stop  offset="0.7" style="stop-color:#FF6358"/>
	<stop  offset="1" style="stop-color:#DD3169"/>
</linearGradient>
<path id="Hierarchical_Data_Grid" class="st0" d="M0,0v64h64V0H0z M2,10h29v7H2V10z M2,19h29v7H2V19z M62,62H2V28h60V62z M62,26H33
	v-7h29V26z M62,17H33v-7h29V17z M59,31H5v28h54V31z M31,57H7v-7h24V57z M31,48H7v-7h24V48z M57,57l-24,0v-7l24,0V57z M57,48l-24,0
	v-7l24,0V48z"/>
</svg>
