<?xml version="1.0" encoding="utf-8"?>
<!-- Generator: Adobe Illustrator 22.1.0, SVG Export Plug-In . SVG Version: 6.00 Build 0)  -->
<svg version="1.1" id="Layer_1" xmlns="http://www.w3.org/2000/svg" xmlns:xlink="http://www.w3.org/1999/xlink" x="0px" y="0px"
	 viewBox="0 0 64 64" style="enable-background:new 0 0 64 64;" xml:space="preserve">
<style type="text/css">
	.st0{fill:url(#landing._page_1_);}
</style>
<linearGradient id="landing._page_1_" gradientUnits="userSpaceOnUse" x1="32" y1="0" x2="32" y2="64">
	<stop  offset="0" style="stop-color:#FFAB09"/>
	<stop  offset="0.7" style="stop-color:#FF6358"/>
	<stop  offset="1" style="stop-color:#DD3169"/>
</linearGradient>
<path id="landing._page" class="st0" d="M0,0v64h64V0H0z M58,9c0,1.7-1.3,3-3,3s-3-1.3-3-3s1.3-3,3-3S58,7.3,58,9z M50,9
	c0,1.7-1.3,3-3,3s-3-1.3-3-3s1.3-3,3-3S50,7.3,50,9z M42,9c0,1.7-1.3,3-3,3s-3-1.3-3-3s1.3-3,3-3S42,7.3,42,9z M62,62H2V18h60V62z
	 M20,47H6V33h14V47z M25,47V33h14v14H25z M44,33h14v14H44V33z M58,28H6v-4h52V28z M58,56H6v-4h52V56z"/>
</svg>
