<?xml version="1.0" encoding="utf-8"?>
<!-- Generator: Adobe Illustrator 22.1.0, SVG Export Plug-In . SVG Version: 6.00 Build 0)  -->
<svg version="1.1" id="Layer_1" xmlns="http://www.w3.org/2000/svg" xmlns:xlink="http://www.w3.org/1999/xlink" x="0px" y="0px"
	 viewBox="0 0 64 64" style="enable-background:new 0 0 64 64;" xml:space="preserve">
<style type="text/css">
	.st0{fill:url(#Login_1_);}
</style>
<linearGradient id="Login_1_" gradientUnits="userSpaceOnUse" x1="32" y1="0" x2="32" y2="64">
	<stop  offset="0" style="stop-color:#FFAB09"/>
	<stop  offset="0.7" style="stop-color:#FF6358"/>
	<stop  offset="1" style="stop-color:#DD3169"/>
</linearGradient>
<path id="Login" class="st0" d="M6,33v6h52v-6H6z M56,37H8v-2h48V37z M24,31H6v-2h20L24,31z M6,43h24v6H6V43z M6,19v6h52v-6H6z
	 M56,23H8v-2h48V23z M0,0v64h64V0H0z M62,62H2V2h60V62z M24,17H6v-2h20L24,17z"/>
</svg>
