<?xml version="1.0" encoding="utf-8"?>
<!-- Generator: Adobe Illustrator 22.1.0, SVG Export Plug-In . SVG Version: 6.00 Build 0)  -->
<svg version="1.1" id="Layer_1" xmlns="http://www.w3.org/2000/svg" xmlns:xlink="http://www.w3.org/1999/xlink" x="0px" y="0px"
	 viewBox="0 0 64 64" style="enable-background:new 0 0 64 64;" xml:space="preserve">
<style type="text/css">
	.st0{fill:url(#React_2_);}
</style>
<linearGradient id="React_2_" gradientUnits="userSpaceOnUse" x1="32" y1="3.5027" x2="32" y2="60.4973">
	<stop  offset="0" style="stop-color:#FFAB09"/>
	<stop  offset="0.7" style="stop-color:#FF6358"/>
	<stop  offset="1" style="stop-color:#DD3169"/>
</linearGradient>
<path id="React_1_" class="st0" d="M64,32c0-4.2-5.3-8.3-13.4-10.7c1.9-8.3,1-14.9-2.6-17c-0.8-0.5-1.8-0.7-2.9-0.7v0
	c-3.6,0-8.3,2.6-13,7c-4.7-4.4-9.4-6.9-13-6.9v0c-1.1,0-2.1,0.2-2.9,0.7c-3.7,2.1-4.5,8.7-2.6,17C5.3,23.8,0,27.8,0,32
	c0,4.2,5.3,8.3,13.4,10.7c-1.9,8.3-1,14.9,2.6,17c0.8,0.5,1.8,0.7,2.9,0.7c3.6,0,8.3-2.6,13-7c4.7,4.4,9.4,6.9,13,6.9
	c1.1,0,2.1-0.2,2.9-0.7c3.7-2.1,4.5-8.7,2.6-17C58.7,40.3,64,36.2,64,32z M45,6.4L45,6.4c0.6,0,1.1,0.1,1.5,0.4
	c1.8,1,2.5,4.9,1.9,9.9c-0.1,1.2-0.4,2.5-0.7,3.8c-2.6-0.6-5.3-1.1-8.3-1.4c-1.8-2.4-3.6-4.6-5.4-6.5C38.3,8.6,42.3,6.4,45,6.4z
	 M20.4,38.7c0.6,1,1.2,2.1,1.9,3.1c-1.9-0.3-3.6-0.6-5.3-1c0.5-1.7,1.1-3.4,1.8-5.2C19.3,36.6,19.8,37.6,20.4,38.7z M16.9,23.3
	c1.7-0.4,3.5-0.8,5.4-1c-0.6,1-1.3,2-1.9,3.1c-0.6,1-1.2,2.1-1.7,3.1C18,26.7,17.4,25,16.9,23.3z M20.3,32c0.8-1.7,1.7-3.5,2.7-5.2
	c1-1.8,2.1-3.4,3.1-5c1.9-0.2,3.9-0.3,5.9-0.3c2,0,3.9,0.1,5.9,0.2c1.1,1.6,2.1,3.2,3.2,5c1,1.7,1.9,3.4,2.7,5.2
	c-0.8,1.7-1.7,3.5-2.7,5.2c-1,1.8-2.1,3.4-3.1,5C36,42.4,34,42.4,32,42.4c-2,0-3.9-0.1-5.9-0.2C25,40.6,24,39,23,37.2
	C22,35.5,21.1,33.8,20.3,32z M43.6,38.6c0.6-1,1.2-2.1,1.7-3.1c0.7,1.7,1.3,3.5,1.8,5.2c-1.7,0.4-3.5,0.8-5.4,1
	C42.3,40.7,43,39.7,43.6,38.6z M43.5,25.3c-0.6-1-1.2-2.1-1.9-3.1c1.9,0.3,3.6,0.6,5.3,1c-0.5,1.7-1.1,3.4-1.8,5.2
	C44.7,27.4,44.2,26.4,43.5,25.3z M35.6,18.8c-1.2-0.1-2.4-0.1-3.6-0.1c-1.2,0-2.4,0-3.6,0.1c1.2-1.5,2.4-2.9,3.6-4.2
	C33.2,15.8,34.4,17.2,35.6,18.8z M17.4,6.8c0.4-0.2,0.9-0.3,1.5-0.3v0c2.7,0,6.7,2.2,11,6.1c-1.8,1.9-3.7,4.1-5.4,6.5
	c-2.9,0.3-5.7,0.8-8.3,1.4c-0.3-1.3-0.5-2.6-0.7-3.8C14.9,11.7,15.7,7.8,17.4,6.8z M14.2,39.9c-1.3-0.4-2.5-0.8-3.7-1.3
	c-4.6-2-7.6-4.6-7.6-6.6s3-4.6,7.6-6.6c1.1-0.5,2.3-0.9,3.6-1.3c0.7,2.6,1.7,5.2,2.9,7.9C15.8,34.7,14.9,37.4,14.2,39.9z M19,57.6
	c-0.6,0-1.1-0.1-1.5-0.4c-1.8-1-2.5-4.9-1.9-9.9c0.1-1.2,0.4-2.5,0.7-3.8c2.6,0.6,5.3,1.1,8.3,1.4c1.8,2.4,3.6,4.6,5.4,6.5
	C25.7,55.4,21.7,57.6,19,57.6z M32,49.4c-1.2-1.3-2.4-2.6-3.6-4.2c1.2,0.1,2.4,0.1,3.6,0.1c1.2,0,2.4,0,3.6-0.1
	C34.4,46.8,33.2,48.2,32,49.4z M46.6,57.2c-0.4,0.2-0.9,0.3-1.5,0.3c-2.7,0-6.7-2.2-11-6.1c1.8-1.9,3.7-4.1,5.4-6.5
	c2.9-0.3,5.7-0.8,8.3-1.4c0.3,1.3,0.5,2.6,0.7,3.8C49.1,52.3,48.3,56.2,46.6,57.2z M53.5,38.6c-1.1,0.5-2.3,0.9-3.6,1.3
	c-0.7-2.6-1.7-5.2-2.9-7.9c1.2-2.7,2.2-5.4,2.9-7.9c1.3,0.4,2.5,0.8,3.7,1.3c4.6,2,7.6,4.6,7.6,6.6C61.1,34.1,58.1,36.7,53.5,38.6z
	 M26,32c0-3.3,2.7-6,6-6s6,2.7,6,6s-2.7,6-6,6S26,35.3,26,32z"/>
</svg>
