<?xml version="1.0" encoding="utf-8"?>
<!-- Generator: Adobe Illustrator 22.1.0, SVG Export Plug-In . SVG Version: 6.00 Build 0)  -->
<svg version="1.1" id="Layer_1" xmlns="http://www.w3.org/2000/svg" xmlns:xlink="http://www.w3.org/1999/xlink" x="0px" y="0px"
	 viewBox="0 0 24 24" style="enable-background:new 0 0 24 24;" xml:space="preserve">
<style type="text/css">
	.Graphic_x0020_Style{fill:url(#SVGID_1_);}
	.st0{fill:url(#SVGID_2_);}
</style>
<linearGradient id="SVGID_1_" gradientUnits="userSpaceOnUse" x1="0" y1="24" x2="0.866" y2="24.5">
	<stop  offset="0" style="stop-color:#FF9B5E"/>
	<stop  offset="8.618834e-02" style="stop-color:#FF8C5D"/>
	<stop  offset="0.1949" style="stop-color:#FF7F5B"/>
	<stop  offset="0.3" style="stop-color:#FF7B5B"/>
	<stop  offset="0.7" style="stop-color:#FF6358"/>
	<stop  offset="0.7835" style="stop-color:#FC5F59"/>
	<stop  offset="0.8701" style="stop-color:#F4525E"/>
	<stop  offset="0.9577" style="stop-color:#E63E65"/>
	<stop  offset="1" style="stop-color:#DD3169"/>
</linearGradient>
<linearGradient id="SVGID_2_" gradientUnits="userSpaceOnUse" x1="-3.4019" y1="6.8398" x2="18.8576" y2="19.6913" gradientTransform="matrix(1 0 0 -1 0 26)">
	<stop  offset="0" style="stop-color:#FF9B5E"/>
	<stop  offset="8.618834e-02" style="stop-color:#FF8C5D"/>
	<stop  offset="0.1949" style="stop-color:#FF7F5B"/>
	<stop  offset="0.3" style="stop-color:#FF7B5B"/>
	<stop  offset="0.7" style="stop-color:#FF6358"/>
	<stop  offset="0.7835" style="stop-color:#FC5F59"/>
	<stop  offset="0.8701" style="stop-color:#F4525E"/>
	<stop  offset="0.9577" style="stop-color:#E63E65"/>
	<stop  offset="1" style="stop-color:#DD3169"/>
</linearGradient>
<path class="st0" d="M20,5h2v15l0,0l-4,4H2V6h2v16h13.2l2.8-2.8V5z M6,7v2h10l2-2H6z M18,11H6v2h10L18,11z M6,17h6l2-2H6V17z M14,1
	v2h8l2-2H14z M12,0H0v4h12V0z"/>
</svg>
