<?xml version="1.0" encoding="utf-8"?>
<!-- Generator: Adobe Illustrator 22.1.0, SVG Export Plug-In . SVG Version: 6.00 Build 0)  -->
<svg version="1.1" id="Layer_1" xmlns="http://www.w3.org/2000/svg" xmlns:xlink="http://www.w3.org/1999/xlink" x="0px" y="0px"
	 viewBox="0 0 24 24" style="enable-background:new 0 0 24 24;" xml:space="preserve">
<style type="text/css">
	.Graphic_x0020_Style{fill:url(#SVGID_1_);}
	.st0{fill:url(#SVGID_2_);}
</style>
<linearGradient id="SVGID_1_" gradientUnits="userSpaceOnUse" x1="0" y1="24" x2="0.866" y2="24.5">
	<stop  offset="0" style="stop-color:#FF9B5E"/>
	<stop  offset="8.618834e-02" style="stop-color:#FF8C5D"/>
	<stop  offset="0.1949" style="stop-color:#FF7F5B"/>
	<stop  offset="0.3" style="stop-color:#FF7B5B"/>
	<stop  offset="0.7" style="stop-color:#FF6358"/>
	<stop  offset="0.7835" style="stop-color:#FC5F59"/>
	<stop  offset="0.8701" style="stop-color:#F4525E"/>
	<stop  offset="0.9577" style="stop-color:#E63E65"/>
	<stop  offset="1" style="stop-color:#DD3169"/>
</linearGradient>
<linearGradient id="SVGID_2_" gradientUnits="userSpaceOnUse" x1="-0.2936" y1="7.8563" x2="17.1721" y2="17.9401" gradientTransform="matrix(1 0 0 -1 0 26)">
	<stop  offset="0" style="stop-color:#FF9B5E"/>
	<stop  offset="8.618834e-02" style="stop-color:#FF8C5D"/>
	<stop  offset="0.1949" style="stop-color:#FF7F5B"/>
	<stop  offset="0.3" style="stop-color:#FF7B5B"/>
	<stop  offset="0.7" style="stop-color:#FF6358"/>
	<stop  offset="0.7835" style="stop-color:#FC5F59"/>
	<stop  offset="0.8701" style="stop-color:#F4525E"/>
	<stop  offset="0.9577" style="stop-color:#E63E65"/>
	<stop  offset="1" style="stop-color:#DD3169"/>
</linearGradient>
<path class="st0" d="M21,9H9V7h14L21,9z M9,17h12l2-2H9V17z M4,5C2.3,5,1,6.3,1,8s1.3,3,3,3s3-1.3,3-3S5.7,5,4,5z M7,16
	c0,1.7-1.3,3-3,3s-3-1.3-3-3s1.3-3,3-3S7,14.3,7,16z M5,16c0-0.6-0.4-1-1-1s-1,0.4-1,1s0.4,1,1,1S5,16.6,5,16z"/>
</svg>
