<?xml version="1.0" encoding="utf-8"?>
<!-- Generator: Adobe Illustrator 22.1.0, SVG Export Plug-In . SVG Version: 6.00 Build 0)  -->
<svg version="1.1" id="Layer_1" xmlns="http://www.w3.org/2000/svg" xmlns:xlink="http://www.w3.org/1999/xlink" x="0px" y="0px"
	 viewBox="0 0 24 24" style="enable-background:new 0 0 24 24;" xml:space="preserve">
<style type="text/css">
	.st0{fill:url(#SVGID_1_);}
</style>
<linearGradient id="SVGID_1_" gradientUnits="userSpaceOnUse" x1="-3.7497" y1="25.6668" x2="16.7604" y2="13.8253" gradientTransform="matrix(1 0 0 -1 0 28)">
	<stop  offset="0" style="stop-color:#FF9B5E"/>
	<stop  offset="8.618834e-02" style="stop-color:#FF8C5D"/>
	<stop  offset="0.1949" style="stop-color:#FF7F5B"/>
	<stop  offset="0.3" style="stop-color:#FF7B5B"/>
	<stop  offset="0.7" style="stop-color:#FF6358"/>
	<stop  offset="0.7835" style="stop-color:#FC5F59"/>
	<stop  offset="0.8701" style="stop-color:#F4525E"/>
	<stop  offset="0.9577" style="stop-color:#E63E65"/>
	<stop  offset="1" style="stop-color:#DD3169"/>
</linearGradient>
<path class="st0" d="M6,13h3v3H6V13z M21,18.5c0,3-2.5,5.5-5.5,5.5S10,21.5,10,18.5s2.5-5.5,5.5-5.5S21,15.5,21,18.5z M19,18.5
	c0-1.9-1.6-3.5-3.5-3.5S12,16.6,12,18.5s1.6,3.5,3.5,3.5S19,20.4,19,18.5z M16,17h-1v2h2v-1h-1L16,17L16,17z M9,9H6v3h3V9z M4,4H2
	v20h7v-2H4V4z M6,20h3v-3H6V20z M10,12h3V9h-3V12z M17,5h-3v3h3V5z M0,0v2h22l2-2H0z M21,4h-2v8h2V4z M13,5h-3v3h3V5z M14,12h3V9h-3
	V12z"/>
</svg>
