<?xml version="1.0" encoding="utf-8"?>
<!-- Generator: Adobe Illustrator 22.1.0, SVG Export Plug-In . SVG Version: 6.00 Build 0)  -->
<svg version="1.1" id="Layer_1" xmlns="http://www.w3.org/2000/svg" xmlns:xlink="http://www.w3.org/1999/xlink" x="0px" y="0px"
	 viewBox="0 0 24 24" style="enable-background:new 0 0 24 24;" xml:space="preserve">
<style type="text/css">
	.Graphic_x0020_Style{fill:url(#SVGID_1_);}
	.st0{fill:url(#Donut_Charts_1_);}
</style>
<linearGradient id="SVGID_1_" gradientUnits="userSpaceOnUse" x1="0" y1="24" x2="0.866" y2="24.5">
	<stop  offset="0" style="stop-color:#FF9B5E"/>
	<stop  offset="8.618834e-02" style="stop-color:#FF8C5D"/>
	<stop  offset="0.1949" style="stop-color:#FF7F5B"/>
	<stop  offset="0.3" style="stop-color:#FF7B5B"/>
	<stop  offset="0.7" style="stop-color:#FF6358"/>
	<stop  offset="0.7835" style="stop-color:#FC5F59"/>
	<stop  offset="0.8701" style="stop-color:#F4525E"/>
	<stop  offset="0.9577" style="stop-color:#E63E65"/>
	<stop  offset="1" style="stop-color:#DD3169"/>
</linearGradient>
<linearGradient id="Donut_Charts_1_" gradientUnits="userSpaceOnUse" x1="6.208805e-02" y1="7.121" x2="17.5861" y2="17.2385" gradientTransform="matrix(1 0 0 -1 0 26)">
	<stop  offset="0" style="stop-color:#FF9B5E"/>
	<stop  offset="8.618834e-02" style="stop-color:#FF8C5D"/>
	<stop  offset="0.1949" style="stop-color:#FF7F5B"/>
	<stop  offset="0.3" style="stop-color:#FF7B5B"/>
	<stop  offset="0.7" style="stop-color:#FF6358"/>
	<stop  offset="0.7835" style="stop-color:#FC5F59"/>
	<stop  offset="0.8701" style="stop-color:#F4525E"/>
	<stop  offset="0.9577" style="stop-color:#E63E65"/>
	<stop  offset="1" style="stop-color:#DD3169"/>
</linearGradient>
<path id="Donut_Charts_4_" class="st0" d="M11,6.1C8.5,6.5,6.5,8.5,6.1,11h-2C4.5,7.3,7.4,4.5,11,4V6.1z M6.1,13h-2
	c0.5,4,3.9,7,7.9,7c4.4,0,8-3.6,8-8c0-4.1-3-7.5-7-8v2c2.8,0.5,5,2.9,5,5.9c0,3.3-2.7,6-6,6C9,18,6.6,15.8,6.1,13z M24,11
	C23.5,5.1,18.9,0.5,13,0v2c4.7,0.5,8.5,4.2,9,9H24z M11,2V0C4.9,0.5,0,5.7,0,12c0,2.7,0.9,5.2,2.4,7.2l1.4-1.4C2.7,16.1,2,14.1,2,12
	C2,6.8,6,2.5,11,2z M3.7,20.7c2.2,2,5.1,3.3,8.3,3.3c6.3,0,11.5-4.9,12-11h-2c-0.5,5.1-4.8,9-10,9c-2.7,0-5.1-1-6.9-2.7L3.7,20.7z"
	/>
</svg>
