<?xml version="1.0" encoding="utf-8"?>
<!-- Generator: Adobe Illustrator 22.1.0, SVG Export Plug-In . SVG Version: 6.00 Build 0)  -->
<svg version="1.1" id="Layer_1" xmlns="http://www.w3.org/2000/svg" xmlns:xlink="http://www.w3.org/1999/xlink" x="0px" y="0px"
	 viewBox="0 0 24 24" style="enable-background:new 0 0 24 24;" xml:space="preserve">
<style type="text/css">
	.Graphic_x0020_Style{fill:url(#SVGID_1_);}
	.st0{fill:url(#SVGID_2_);}
</style>
<linearGradient id="SVGID_1_" gradientUnits="userSpaceOnUse" x1="0" y1="24" x2="0.866" y2="24.5">
	<stop  offset="0" style="stop-color:#FF9B5E"/>
	<stop  offset="8.618834e-02" style="stop-color:#FF8C5D"/>
	<stop  offset="0.1949" style="stop-color:#FF7F5B"/>
	<stop  offset="0.3" style="stop-color:#FF7B5B"/>
	<stop  offset="0.7" style="stop-color:#FF6358"/>
	<stop  offset="0.7835" style="stop-color:#FC5F59"/>
	<stop  offset="0.8701" style="stop-color:#F4525E"/>
	<stop  offset="0.9577" style="stop-color:#E63E65"/>
	<stop  offset="1" style="stop-color:#DD3169"/>
</linearGradient>
<linearGradient id="SVGID_2_" gradientUnits="userSpaceOnUse" x1="-2.8037" y1="5.4531" x2="18.8963" y2="17.9816" gradientTransform="matrix(1 0 0 -1 0 26)">
	<stop  offset="0" style="stop-color:#FF9B5E"/>
	<stop  offset="8.618834e-02" style="stop-color:#FF8C5D"/>
	<stop  offset="0.1949" style="stop-color:#FF7F5B"/>
	<stop  offset="0.3" style="stop-color:#FF7B5B"/>
	<stop  offset="0.7" style="stop-color:#FF6358"/>
	<stop  offset="0.7835" style="stop-color:#FC5F59"/>
	<stop  offset="0.8701" style="stop-color:#F4525E"/>
	<stop  offset="0.9577" style="stop-color:#E63E65"/>
	<stop  offset="1" style="stop-color:#DD3169"/>
</linearGradient>
<path class="st0" d="M9,17c0.2,0,0.5,0,0.7-0.1c0.3,0,0.5-0.1,0.8-0.2c0.1,0,0.1-0.1,0.2-0.1l-0.2-0.9c-0.3,0.1-0.6,0.2-1,0.2
	c-0.2,0-0.3,0-0.5,0c-2.2,0-4-1.8-4-4s1.8-4,4-4c0.5,0,1,0.1,1.5,0.3c0.4,0.1,0.7,0.4,1,0.6c0.2,0.2,0.4,0.4,0.6,0.6
	c0.2,0.3,0.5,0.6,0.6,1c0.2,0.5,0.3,1,0.3,1.5s-0.1,1-0.3,1.5h-1.2V12v-1.5v-1h-1H9c-1.4,0-2.5,1.1-2.5,2.5s1.1,2.5,2.5,2.5
	c0.6,0,1.1-0.2,1.5-0.5l0,0c0,0.3,0.2,0.5,0.5,0.5h0.5h0.6h1.2c0.2-0.3,0.3-0.6,0.4-1c0.2-0.5,0.3-1,0.3-1.5s-0.1-1-0.3-1.5
	c-0.1-0.4-0.3-0.7-0.4-1c-0.4-0.8-1.1-1.4-1.8-1.8c-0.3-0.2-0.6-0.3-1-0.4C10,7.1,9.5,7,9,7c-2.8,0-5,2.2-5,5S6.2,17,9,17z M10.5,12
	c0,0.8-0.7,1.5-1.5,1.5S7.5,12.8,7.5,12s0.7-1.5,1.5-1.5h1.5V12z M11,13.5L11,13.5L11,13.5L11,13.5z M0,3v18h24V3H0z M22,19H2V5h20
	V19z"/>
</svg>
