<?xml version="1.0" encoding="utf-8"?>
<!-- Generator: Adobe Illustrator 22.1.0, SVG Export Plug-In . SVG Version: 6.00 Build 0)  -->
<svg version="1.1" id="Layer_1" xmlns="http://www.w3.org/2000/svg" xmlns:xlink="http://www.w3.org/1999/xlink" x="0px" y="0px"
	 viewBox="0 0 24 24" style="enable-background:new 0 0 24 24;" xml:space="preserve">
<style type="text/css">
	.Graphic_x0020_Style{fill:url(#SVGID_1_);}
	.st0{fill:url(#SVGID_2_);}
</style>
<linearGradient id="SVGID_1_" gradientUnits="userSpaceOnUse" x1="0" y1="24" x2="0.866" y2="24.5">
	<stop  offset="0" style="stop-color:#FF9B5E"/>
	<stop  offset="8.618834e-02" style="stop-color:#FF8C5D"/>
	<stop  offset="0.1949" style="stop-color:#FF7F5B"/>
	<stop  offset="0.3" style="stop-color:#FF7B5B"/>
	<stop  offset="0.7" style="stop-color:#FF6358"/>
	<stop  offset="0.7835" style="stop-color:#FC5F59"/>
	<stop  offset="0.8701" style="stop-color:#F4525E"/>
	<stop  offset="0.9577" style="stop-color:#E63E65"/>
	<stop  offset="1" style="stop-color:#DD3169"/>
</linearGradient>
<linearGradient id="SVGID_2_" gradientUnits="userSpaceOnUse" x1="6.242677e-02" y1="7.1094" x2="17.5902" y2="17.229" gradientTransform="matrix(1 0 0 -1 0 26)">
	<stop  offset="0" style="stop-color:#FF9B5E"/>
	<stop  offset="8.618834e-02" style="stop-color:#FF8C5D"/>
	<stop  offset="0.1949" style="stop-color:#FF7F5B"/>
	<stop  offset="0.3" style="stop-color:#FF7B5B"/>
	<stop  offset="0.7" style="stop-color:#FF6358"/>
	<stop  offset="0.7835" style="stop-color:#FC5F59"/>
	<stop  offset="0.8701" style="stop-color:#F4525E"/>
	<stop  offset="0.9577" style="stop-color:#E63E65"/>
	<stop  offset="1" style="stop-color:#DD3169"/>
</linearGradient>
<path class="st0" d="M11,0C4.9,0.5,0,5.7,0,12c0,3,1.1,5.7,2.8,7.7l8.2-8.2V0z M9,10.7l-5.9,5.9c-0.2-0.4-0.4-0.7-0.5-1.1
	C2.2,14.4,2,13.2,2,12c0-2.5,1-5,2.7-6.8C5.9,3.9,7.4,3,9,2.4V10.7z M4.3,21.1C6.4,22.9,9.1,24,12,24c6.3,0,11.5-4.8,12-11H12.4
	L4.3,21.1z M21.6,15c-0.5,1.6-1.5,3.1-2.8,4.3C17,21,14.5,22,12,22c-1.2,0-2.4-0.2-3.5-0.6c-0.4-0.1-0.8-0.3-1.1-0.5l5.9-5.9H21.6z
	 M13,0v11h11C23.5,5.1,18.9,0.5,13,0z M15,2.4c1.5,0.5,2.9,1.3,4.1,2.5c1.1,1.1,2,2.5,2.5,4.1H15V2.4z"/>
</svg>
