<?xml version="1.0" encoding="utf-8"?>
<!-- Generator: Adobe Illustrator 22.1.0, SVG Export Plug-In . SVG Version: 6.00 Build 0)  -->
<svg version="1.1" id="Layer_1" xmlns="http://www.w3.org/2000/svg" xmlns:xlink="http://www.w3.org/1999/xlink" x="0px" y="0px"
	 viewBox="0 0 64 64" style="enable-background:new 0 0 64 64;" xml:space="preserve">
<style type="text/css">
	.st0{display:none;}
	.st1{display:inline;fill:#797979;}
	.st2{display:inline;fill:#FFFFFF;}
	.st3{display:inline;}
	.st4{fill:#797979;}
	.st5{fill:#DDE4E5;}
	.st6{fill:#FFFFFF;}
	.st7{fill:url(#Progress_Data_1_);}
	.st8{display:none;fill:url(#Generic_REST_1_);}
	.st9{display:none;fill:url(#OData_1_);}
</style>
<g id="OData" class="st0">
	<rect id="border_2_" class="st1" width="64" height="64"/>
	<rect id="white_2_" x="1" y="1" class="st2" width="62" height="62"/>
	<g id="OData_3_" class="st3">
		<circle id="border_10_" class="st4" cx="18" cy="50" r="8"/>
		<circle id="light_grey_7_" class="st5" cx="18" cy="50" r="7"/>
	</g>
	<g id="left" class="st3">
		<g id="_x31__3_">
			<path id="border_9_" class="st4" d="M6,6v10h24V6H6z M29,15H7V7h22V15z"/>
			<rect id="light_grey_6_" x="7" y="7" class="st5" width="22" height="8"/>
		</g>
		<g id="_x32__3_">
			<path id="border_8_" class="st4" d="M6,18v10h24V18H6z M29,27H7v-8h22V27z"/>
			<path id="light_grey_5_" class="st5" d="M7,19v8h22v-8H7z"/>
		</g>
		<g id="_x33__3_">
			<path id="border_7_" class="st4" d="M6,30v10h24V30H6z M29,39H7v-8h22V39z"/>
			<path id="light_grey_4_" class="st5" d="M7,31v8h22v-8H7z"/>
		</g>
	</g>
	<g id="right" class="st3">
		<g id="_x31__2_">
			<path id="border_6_" class="st4" d="M34,6v10h24V6H34z M57,15H35V7h22V15z"/>
			<rect id="light_grey_3_" x="35" y="7" class="st5" width="22" height="8"/>
		</g>
		<g id="_x32__2_">
			<path id="border_5_" class="st4" d="M34,18v10h24V18H34z M57,27H35v-8h22V27z"/>
			<path id="light_grey_2_" class="st5" d="M35,19v8h22v-8H35z"/>
		</g>
		<g id="_x33__2_">
			<path id="border_4_" class="st4" d="M34,30v10h24V30H34z M57,39H35v-8h22V39z"/>
			<path id="light_grey_1_" class="st5" d="M35,31v8h22v-8H35z"/>
		</g>
		<g id="_x34__2_">
			<path id="border_3_" class="st4" d="M34,42v10h24V42H34z M57,51H35v-8h22V51z"/>
			<path id="light_grey" class="st5" d="M35,43v8h22v-8H35z"/>
		</g>
	</g>
</g>
<g id="ProgressData_Provider_1_" class="st0">
	<rect id="border_1_" class="st1" width="64" height="64"/>
	<rect id="white_1_" x="1" y="1" class="st2" width="62" height="62"/>
	<g id="parts_1_" class="st3">
		<g id="_x34__1_">
			<path class="st4" d="M5,42v10h23V42H5z M27,51H6v-8h21V51z"/>
			<path class="st5" d="M6,43v8h21v-8H6z"/>
			<rect x="9" y="45" class="st4" width="9" height="4"/>
			<rect x="10" y="47" class="st6" width="7" height="1"/>
		</g>
		<g id="_x33__1_">
			<path class="st4" d="M5,30v10h54V30H5z M58,39H6v-8h52V39z"/>
			<path class="st5" d="M6,31v8h52v-8H6z"/>
			<rect x="9" y="33" class="st4" width="9" height="4"/>
			<rect x="10" y="35" class="st6" width="7" height="1"/>
		</g>
		<g id="_x32__1_">
			<path class="st4" d="M5,18v10h54V18H5z M58,27H6v-8h52V27z"/>
			<path class="st5" d="M6,19v8h52v-8H6z"/>
			<rect x="9" y="21" class="st4" width="9" height="4"/>
			<rect x="10" y="23" class="st6" width="7" height="1"/>
		</g>
		<g id="_x31__1_">
			<path class="st4" d="M5,6v10h54V6H5z M58,15H6V7h52V15z"/>
			<rect x="6" y="7" class="st5" width="52" height="8"/>
			<rect x="9" y="9" class="st4" width="9" height="4"/>
			<rect x="10" y="11" class="st6" width="7" height="1"/>
		</g>
	</g>
	<g id="ProgressDataProvider_2_" class="st3">
		<path id="logo" class="st4" d="M59,55.3c0,0.2-0.1,0.4-0.3,0.5l-4.3,2.4V49l-8.6-4.6l4.4-2.4c0.2-0.1,0.5-0.1,0.6,0l8.2,4.6V55.3z
			 M52.8,50.1l-6.1-3.1c-0.2-0.1-0.5-0.1-0.7,0L42,49l6.2,3.3V59l4.3-2.1c0.2-0.1,0.3-0.3,0.3-0.5V50.1z M42,55.7l4.6,2.3v-4.6
			L42,55.7z"/>
	</g>
</g>
<g id="REST_Data_Provider" class="st0">
	<rect id="border" class="st1" width="64" height="64"/>
	<rect id="white" x="1" y="1" class="st2" width="62" height="62"/>
	<g id="parts" class="st3">
		<g id="_x34_">
			<path class="st4" d="M5,42v10h23V42H5z M27,51H6v-8h21V51z"/>
			<path class="st5" d="M6,43v8h21v-8H6z"/>
			<rect x="9" y="45" class="st4" width="9" height="4"/>
			<rect x="10" y="47" class="st6" width="7" height="1"/>
		</g>
		<g id="_x33_">
			<path class="st4" d="M5,30v10h54V30H5z M58,39H6v-8h52V39z"/>
			<path class="st5" d="M6,31v8h52v-8H6z"/>
			<rect x="9" y="33" class="st4" width="9" height="4"/>
			<rect x="10" y="35" class="st6" width="7" height="1"/>
		</g>
		<g id="_x32_">
			<path class="st4" d="M5,18v10h54V18H5z M58,27H6v-8h52V27z"/>
			<path class="st5" d="M6,19v8h52v-8H6z"/>
			<rect x="9" y="21" class="st4" width="9" height="4"/>
			<rect x="10" y="23" class="st6" width="7" height="1"/>
		</g>
		<g id="_x31_">
			<path class="st4" d="M5,6v10h54V6H5z M58,15H6V7h52V15z"/>
			<rect x="6" y="7" class="st5" width="52" height="8"/>
			<rect x="9" y="9" class="st4" width="9" height="4"/>
			<rect x="10" y="11" class="st6" width="7" height="1"/>
		</g>
	</g>
	<g id="REST_1_" class="st3">
		<path class="st4" d="M34,49h-2v10h2v-4h2v4h2v-4l-1-1l1-1v-2l-2-2H34z M36,53h-2v-2h2V53z"/>
		<polygon class="st4" points="39,49 39,57 39,59 41,59 45,59 45,57 41,57 41,55 45,55 45,53 41,53 41,51 45,51 45,49 41,49 		"/>
		<polygon class="st4" points="46,51 46,53 48,55 50,55 50,57 46,57 46,59 52,59 52,57 52,55 50,53 48,53 48,51 52,51 52,49 46,49 
					"/>
		<polygon class="st4" points="53,49 53,51 55,51 55,59 57,59 57,51 59,51 59,49 		"/>
	</g>
</g>
<linearGradient id="Progress_Data_1_" gradientUnits="userSpaceOnUse" x1="32" y1="0" x2="32" y2="64">
	<stop  offset="0" style="stop-color:#FFAB09"/>
	<stop  offset="0.7" style="stop-color:#FF6358"/>
	<stop  offset="1" style="stop-color:#DD3169"/>
</linearGradient>
<path id="Progress_Data" class="st7" d="M0,0v64h64V0H0z M58,30v8H6v-8H58z M6,26v-8h52v8H6z M44.8,44.5l4.4-2.4
	c0.2-0.1,0.5-0.1,0.6,0l8.2,4.6v8.7c0,0.2-0.1,0.4-0.3,0.5l-4.3,2.4V49L44.8,44.5z M41,49l4.1-2.1c0.2-0.1,0.5-0.1,0.7,0l6.1,3.1
	v6.3c0,0.2-0.1,0.4-0.3,0.5L47.2,59v-6.6L41,49z M45.6,53.4V58L41,55.7L45.6,53.4z M25,42v8H6v-8H25z M58,14H6V6h52V14z M17,11H9V9
	h10L17,11z M9,21h10l-2,2H9V21z M17,35H9v-2h10L17,35z M17,47H9v-2h10L17,47z"/>
<linearGradient id="Generic_REST_1_" gradientUnits="userSpaceOnUse" x1="32" y1="0" x2="32" y2="64">
	<stop  offset="0" style="stop-color:#FFAB09"/>
	<stop  offset="0.7" style="stop-color:#FF6358"/>
	<stop  offset="1" style="stop-color:#DD3169"/>
</linearGradient>
<path id="Generic_REST" class="st8" d="M0,0v64h64V0H0z M58,30v8H6v-8H58z M6,26v-8h52v8H6z M52,50v-2h6v2h-2v8h-2v-8H52z M49,52
	l2,2v2v2h-6v-2h4v-2h-2l-2-2v-2v-2h6v2h-4v2H49z M44,52v2h-4v2h4v2h-4h-2v-2v-8h2h4v2h-4v2H44z M37,54v4h-2v-4h-2v4h-2V48h2h2l2,2v2
	l-1,1L37,54z M25,42v8H6v-8H25z M58,14H6V6h52V14z M33,50h2v2h-2V50z M17,47H9v-2h10L17,47z M17,11H9V9h10L17,11z M9,21h10l-2,2H9
	V21z M17,35H9v-2h10L17,35z"/>
<linearGradient id="OData_1_" gradientUnits="userSpaceOnUse" x1="32" y1="0" x2="32" y2="64">
	<stop  offset="0" style="stop-color:#FFAB09"/>
	<stop  offset="0.7" style="stop-color:#FF6358"/>
	<stop  offset="1" style="stop-color:#DD3169"/>
</linearGradient>
<path id="OData_2_" class="st9" d="M0,0v64h64V0H0z M18,58c-5,0-9-4-9-9c0-5,4-9,9-9s9,4,9,9C27,54,23,58,18,58z M30,38H6v-8h24V38z
	 M30,26H6v-8h24V26z M30,14H6V6h24V14z M58,50H34v-8h24V50z M58,38H34v-8h24V38z M58,26H34v-8h24V26z M58,14H34V6h24V14z"/>
</svg>
